<?xml version="1.0" standalone="no"?>
<!DOCTYPE svg PUBLIC "-//W3C//DTD SVG 1.1//EN" "http://www.w3.org/Graphics/SVG/1.1/DTD/svg11.dtd">
<svg version="1.1" xmlns="http://www.w3.org/2000/svg" viewBox="0 0 371.24481836541963 373.6472466596092" width="1113.734455096259" height="1120.9417399788276"><!-- svg-source:excalidraw --><metadata></metadata><defs><style class="style-fonts">
      </style></defs><g stroke-linecap="round"><g transform="translate(41.10073759294028 69.87658370635972) rotate(346.98715096434336 50.003203266616765 143.52854792221387)"><path d="M0 0 C16.67 24.09, 99.37 96.69, 100.01 144.53 C100.64 192.38, 19.85 263.3, 3.82 287.06 M0 0 C16.67 24.09, 99.37 96.69, 100.01 144.53 C100.64 192.38, 19.85 263.3, 3.82 287.06" stroke="#F9FAFB" stroke-width="8" fill="none"></path></g></g><mask></mask><g stroke-linecap="round"><g transform="translate(116.60197001694905 -52.38800926242038) rotate(75.28579635901725 49.80514253914589 148.4450028682993)"><path d="M0 0 C16.72 24.85, 100.44 99.6, 100.32 149.08 C100.2 198.56, 16.13 272.25, -0.71 296.89 M0 0 C16.72 24.85, 100.44 99.6, 100.32 149.08 C100.2 198.56, 16.13 272.25, -0.71 296.89" stroke="#F9FAFB" stroke-width="8" fill="none"></path></g></g><mask></mask><g stroke-linecap="round"><g transform="translate(239.764460890794 18.021801974750815) rotate(165.7746221762046 43.745341120593366 143.20969546997208)"><path d="M0 0 C15.71 23.1, 95.39 90.87, 94.26 138.61 C93.13 186.34, 10.07 261.78, -6.77 286.42 M0 0 C15.71 23.1, 95.39 90.87, 94.26 138.61 C93.13 186.34, 10.07 261.78, -6.77 286.42" stroke="#F9FAFB" stroke-width="8" fill="none"></path></g></g><mask></mask><g stroke-linecap="round"><g transform="translate(158.54365939482523 132.50658402958106) rotate(254.95142884193243 48.479689689826046 146.11710668751175)"><path d="M0 0 C16.5 24.07, 99.33 95.72, 98.99 144.42 C98.65 193.13, 14.8 267.6, -2.03 292.23 M0 0 C16.5 24.07, 99.33 95.72, 98.99 144.42 C98.65 193.13, 14.8 267.6, -2.03 292.23" stroke="#F9FAFB" stroke-width="8" fill="none"></path></g></g><mask></mask><g stroke-linecap="round"><g transform="translate(85.42228914136649 106.18883070526272) rotate(346.98715096434336 33.88841468101964 102.13920788476071)"><path d="M0 0 C11.53 16.83, 69.44 66.91, 69.2 100.95 C68.96 135, 10.35 187.06, -1.42 204.28 M0 0 C11.53 16.83, 69.44 66.91, 69.2 100.95 C68.96 135, 10.35 187.06, -1.42 204.28" stroke="#F9FAFB" stroke-width="8" fill="none"></path></g></g><mask></mask><g stroke-linecap="round"><g transform="translate(136.40938817097776 22.65319227940472) rotate(75.28579635901725 33.88841468101964 102.13920788476094)"><path d="M0 0 C11.53 16.83, 69.44 66.91, 69.2 100.95 C68.96 135, 10.35 187.06, -1.42 204.28 M0 0 C11.53 16.83, 69.44 66.91, 69.2 100.95 C68.96 135, 10.35 187.06, -1.42 204.28" stroke="#F9FAFB" stroke-width="8" fill="none"></path></g></g><mask></mask><g stroke-linecap="round"><g transform="translate(220.34785004996957 69.76713660204541) rotate(165.7746221762046 33.88841468101964 102.13920788476071)"><path d="M0 0 C11.53 16.83, 69.44 66.91, 69.2 100.95 C68.96 135, 10.35 187.06, -1.42 204.28 M0 0 C11.53 16.83, 69.44 66.91, 69.2 100.95 C68.96 135, 10.35 187.06, -1.42 204.28" stroke="#F9FAFB" stroke-width="8" fill="none"></path></g></g><mask></mask><g stroke-linecap="round"><g transform="translate(166.3751935492619 149.85787253514127) rotate(254.95142884193243 33.88841468101964 102.13920788476071)"><path d="M0 0 C11.53 16.83, 69.44 66.91, 69.2 100.95 C68.96 135, 10.35 187.06, -1.42 204.28 M0 0 C11.53 16.83, 69.44 66.91, 69.2 100.95 C68.96 135, 10.35 187.06, -1.42 204.28" stroke="#F9FAFB" stroke-width="8" fill="none"></path></g></g><mask></mask><g stroke-linecap="round"><g transform="translate(104.09386616731354 105.41939625825353) rotate(6.773731018640601 28.06394800684575 80.4780573768428)"><path d="M0 0 C9.35 13.49, 55.74 54.09, 56.13 80.91 C56.51 107.74, 11.28 147.62, 2.31 160.96 M0 0 C9.35 13.49, 55.74 54.09, 56.13 80.91 C56.51 107.74, 11.28 147.62, 2.31 160.96" stroke="#F9FAFB" stroke-width="8" fill="none"></path></g></g><mask></mask><g stroke-linecap="round"><g transform="translate(166.36489044384507 54.94547545328123) rotate(95.07237641331442 27.91294936880513 83.26294486494112)"><path d="M0 0 C9.37 13.95, 56.27 55.97, 56.21 83.72 C56.15 111.48, 9.05 152.73, -0.38 166.53 M0 0 C9.37 13.95, 56.27 55.97, 56.21 83.72 C56.15 111.48, 9.05 152.73, -0.38 166.53" stroke="#F9FAFB" stroke-width="8" fill="none"></path></g></g><mask></mask><g stroke-linecap="round"><g transform="translate(218.88381341616332 114.53592361875462) rotate(185.56120223050175 24.633546063872927 80.44742391968134)"><path d="M0 0 C8.82 13.02, 53.54 51.28, 52.93 78.09 C52.32 104.91, 5.77 147.09, -3.66 160.89 M0 0 C8.82 13.02, 53.54 51.28, 52.93 78.09 C52.32 104.91, 5.77 147.09, -3.66 160.89" stroke="#F9FAFB" stroke-width="8" fill="none"></path></g></g><mask></mask><g stroke-linecap="round"><g transform="translate(153.80302410779404 160.2816595866866) rotate(274.7380088962297 27.157554252273258 81.85248869042312)"><path d="M0 0 C9.24 13.48, 55.64 53.62, 55.45 80.9 C55.26 108.19, 8.29 149.9, -1.14 163.7 M0 0 C9.24 13.48, 55.64 53.62, 55.45 80.9 C55.26 108.19, 8.29 149.9, -1.14 163.7" stroke="#F9FAFB" stroke-width="8" fill="none"></path></g></g><mask></mask><g stroke-linecap="round"><g transform="translate(129.07285250625137 131.23060693160778) rotate(6.773731018640601 18.983753116237494 57.21676638530562)"><path d="M0 0 C6.46 9.43, 38.9 37.48, 38.76 56.55 C38.63 75.63, 5.8 104.79, -0.8 114.43 M0 0 C6.46 9.43, 38.9 37.48, 38.76 56.55 C38.63 75.63, 5.8 104.79, -0.8 114.43" stroke="#F9FAFB" stroke-width="8" fill="none"></path></g></g><mask></mask><g stroke-linecap="round"><g transform="translate(171.7897535643133 96.8668523451779) rotate(95.07237641331442 18.983753116237494 57.21676638530562)"><path d="M0 0 C6.46 9.43, 38.9 37.48, 38.76 56.55 C38.63 75.63, 5.8 104.79, -0.8 114.43 M0 0 C6.46 9.43, 38.9 37.48, 38.76 56.55 C38.63 75.63, 5.8 104.79, -0.8 114.43" stroke="#F9FAFB" stroke-width="8" fill="none"></path></g></g><mask></mask><g stroke-linecap="round"><g transform="translate(207.10031549599807 137.6185594907438) rotate(185.56120223050175 18.983753116237494 57.21676638530562)"><path d="M0 0 C6.46 9.43, 38.9 37.48, 38.76 56.55 C38.63 75.63, 5.8 104.79, -0.8 114.43 M0 0 C6.46 9.43, 38.9 37.48, 38.76 56.55 C38.63 75.63, 5.8 104.79, -0.8 114.43" stroke="#F9FAFB" stroke-width="8" fill="none"></path></g></g><mask></mask><g stroke-linecap="round"><g transform="translate(163.46295875701617 169.60031059072935) rotate(274.7380088962297 18.983753116237494 57.21676638530562)"><path d="M0 0 C6.46 9.43, 38.9 37.48, 38.76 56.55 C38.63 75.63, 5.8 104.79, -0.8 114.43 M0 0 C6.46 9.43, 38.9 37.48, 38.76 56.55 C38.63 75.63, 5.8 104.79, -0.8 114.43" stroke="#F9FAFB" stroke-width="8" fill="none"></path></g></g><mask></mask></svg>
